<svg xmlns="http://www.w3.org/2000/svg" width="24" height="14.415" viewBox="0 0 24 14.415">
  <path id="Icon_awesome-aws" data-name="Icon awesome-aws" d="M6.765,9.706a3.583,3.583,0,0,0,.408,1.464.306.306,0,0,1-.154.235l-.48.336a.4.4,0,0,1-.211.072c-.016,0-.307.069-.768-.96a2.948,2.948,0,0,1-2.348,1.1,2.021,2.021,0,0,1-2.18-2.108A2.332,2.332,0,0,1,3.692,7.6a7.531,7.531,0,0,1,1.762.235V7.247A1.426,1.426,0,0,0,3.774,5.6a4.473,4.473,0,0,0-1.719.379c-.276.127-.311.106-.4.106-.278,0-.163-.805-.11-.907A4.352,4.352,0,0,1,4.015,4.5,2.882,2.882,0,0,1,6.1,5.144a2.636,2.636,0,0,1,.663,1.963v2.6ZM3.525,10.92A1.829,1.829,0,0,0,5.373,9.778,3.756,3.756,0,0,0,5.45,8.75a6.446,6.446,0,0,0-1.483-.183C3.4,8.525,2.361,8.779,2.4,9.777A1.042,1.042,0,0,0,3.525,10.92Zm6.409.864a.433.433,0,0,1-.475-.389L7.591,5.221A1.432,1.432,0,0,1,7.519,4.9a.173.173,0,0,1,.145-.2c.009,0-.08,0,.834,0a.426.426,0,0,1,.471.389l1.339,5.281,1.243-5.281a.424.424,0,0,1,.48-.384h.643a.415.415,0,0,1,.475.389L14.4,10.445,15.786,5.1a.439.439,0,0,1,.475-.389H17c.032,0,.231-.03.2.322-.016.069.128-.4-1.978,6.371a.433.433,0,0,1-.475.389h-.7a.433.433,0,0,1-.475-.4L12.325,6.244,11.1,11.381a.432.432,0,0,1-.475.4H9.934ZM20.189,12a5.066,5.066,0,0,1-2.151-.461.48.48,0,0,1-.293-.447v-.4c0-.317.232-.259.331-.221a5.149,5.149,0,0,0,1.08.36,2.842,2.842,0,0,0,2.127-.168.862.862,0,0,0,.2-1.311c-.393-.33-.58-.342-1.992-.787a2.17,2.17,0,0,1-1.642-1.963c-.023-1.059.939-2.107,2.607-2.1.475,0,1.741.155,2.084.586a.453.453,0,0,1,.072.264v.379q0,.25-.183.25a5.29,5.29,0,0,0-1.843-.4c-.258-.013-1.5.034-1.44.936-.016.711,1,.978,1.114,1.008,1.367.411,1.824.48,2.367,1.109a2.038,2.038,0,0,1,.163,2.079A2.851,2.851,0,0,1,20.189,12ZM21.7,15.928A17.189,17.189,0,0,1,12,18.9a17.592,17.592,0,0,1-11.9-4.527c-.245-.221-.029-.523.269-.355a23.9,23.9,0,0,0,11.883,3.154,23.633,23.633,0,0,0,9.059-1.858c.442-.187.816.292.379.614Zm1.095-1.248c-.336-.432-2.223-.2-3.068-.1-.255.029-.3-.192-.067-.355,1.5-1.056,3.97-.754,4.254-.4s-.077,2.828-1.483,4.009c-.216.183-.423.086-.327-.154.316-.8,1.027-2.568.691-3Z" transform="translate(0 -4.485)" fill="#082453"/>
</svg>
