<svg xmlns="http://www.w3.org/2000/svg" width="32" height="32" viewBox="0 0 32 32">
  <path id="bootstrap" d="M26.667,0H5.333A5.347,5.347,0,0,0,0,5.333V26.667A5.349,5.349,0,0,0,5.333,32H26.667A5.349,5.349,0,0,0,32,26.667V5.333A5.349,5.349,0,0,0,26.667,0ZM23.751,22.473a4.156,4.156,0,0,1-1.231,1.645,6.285,6.285,0,0,1-2.142,1.093,10.568,10.568,0,0,1-3.111.407H8.691V6.952H17.76A6.458,6.458,0,0,1,21.787,8.1a4.091,4.091,0,0,1,1.517,3.48,4.141,4.141,0,0,1-.691,2.413,4.422,4.422,0,0,1-1.973,1.541v.061a4.031,4.031,0,0,1,2.6,1.62,5.476,5.476,0,0,1,.877,3.182,5.336,5.336,0,0,1-.4,2.037l.034.036Zm-3.7-4.6a3.288,3.288,0,0,0-2.307-.744H11.98v5.824h5.779a3.23,3.23,0,0,0,2.307-.773,2.863,2.863,0,0,0,.827-2.187,2.738,2.738,0,0,0-.827-2.12h-.023Zm-.8-3.764a2.381,2.381,0,0,0,.787-1.925A2.424,2.424,0,0,0,19.33,10.2a3.17,3.17,0,0,0-2.037-.577H11.959v5.151h5.333a2.939,2.939,0,0,0,1.952-.661Z" fill="#082453"/>
</svg>
