<svg xmlns="http://www.w3.org/2000/svg" width="23.999" height="15.7" viewBox="0 0 23.999 15.7">
  <g id="Layer_1-2" transform="translate(-0.001)">
    <path id="Path_9" d="M19.5,5.6A7.946,7.946,0,0,0,4.9,4.2,5.828,5.828,0,0,0,.1,11a6.067,6.067,0,0,0,3.4,4.4l.2.1h0V13.8A4.421,4.421,0,0,1,2.2,7.7h0A4.41,4.41,0,0,1,5.5,5.6h.4l.2-.4a6.539,6.539,0,0,1,5.8-3.7,6.52,6.52,0,0,1,6.3,5l.1.6h.6a3.671,3.671,0,0,1,3.6,3.7,3.343,3.343,0,0,1-2.2,3.1v1.6h.1A4.92,4.92,0,0,0,24,10.8,5.12,5.12,0,0,0,19.5,5.6Z" fill="#082453"/>
    <path id="Path_10" d="M9,15.3l.3.3v.1H6.6a1.155,1.155,0,0,1-1.2-1.2h0v-5a.1.1,0,0,0-.1-.1H4.8a.1.1,0,0,1-.1-.1h0L7,7.1h.1L9.3,9.3v.1H8.6a.1.1,0,0,0-.1.1h0v5A2.177,2.177,0,0,0,9,15.3Z" fill="#082453"/>
    <path id="Path_11" d="M13.9,15.3l.3.3v.1H11.5a1.155,1.155,0,0,1-1.2-1.2h0V10.7a.1.1,0,0,0-.1-.1H9.7a.1.1,0,0,1-.1-.1h0l2.2-2.2h.1l2.2,2.2v.1h-.7a.1.1,0,0,0-.1.1h0v3.7A2.034,2.034,0,0,0,13.9,15.3Z" fill="#082453"/>
    <path id="Path_12" d="M18.7,15.3l.3.3v.1H16.4a1.155,1.155,0,0,1-1.2-1.2h0V12a.1.1,0,0,0-.1-.1h-.6a.1.1,0,0,1-.1-.1h0l2.2-2.2h.1l2.2,2.2v.1h-.6a.1.1,0,0,0-.1.1h0v2.4A3.6,3.6,0,0,0,18.7,15.3Z" fill="#082453"/>
  </g>
</svg>
