<svg xmlns="http://www.w3.org/2000/svg" width="24" height="30.92" viewBox="0 0 24 30.92">
  <path id="Icon_simple-django" data-name="Icon simple-django" d="M14.929,0h5.056V23.4a33.368,33.368,0,0,1-6.566.689c-6.173,0-9.39-2.791-9.39-8.143,0-5.155,3.414-8.5,8.7-8.5a8.071,8.071,0,0,1,2.2.263Zm0,11.78a5.017,5.017,0,0,0-1.707-.263c-2.561,0-4.038,1.576-4.038,4.334,0,2.693,1.412,4.169,4.006,4.169a11.665,11.665,0,0,0,1.739-.131v-8.11Zm13.1-3.972v11.72c0,4.038-.3,5.976-1.181,7.649a8.077,8.077,0,0,1-4.137,3.743l-4.695-2.233c2.233-1.05,3.316-1.97,4.006-3.382.723-1.444.952-3.119.952-7.518V7.806h5.056ZM22.973.027h5.056V5.214H22.973Z" transform="translate(-4.029)" fill="#082453"/>
</svg>
