<svg xmlns="http://www.w3.org/2000/svg" width="24" height="8.868" viewBox="0 0 24 8.868">
  <path id="dot-net" d="M3.167,11.349V20.1H4.19V13.773a8.979,8.979,0,0,0-.049-1.2H4.18a2.908,2.908,0,0,0,.278.547l4.5,6.978h1.257V11.349H9.191V17.5a9.258,9.258,0,0,0,.062,1.286H9.231q-.166-.3-.355-.585L4.5,11.349Zm9.316,0V20.1h4.65l0-.96H13.529V16.105h3.158v-.922H13.529V12.275h3.389v-.926Zm5.438,0v.926h2.514V20.1h1.022V12.276H24V11.35ZM.654,18.851a.643.643,0,0,0-.456.206.672.672,0,0,0-.2.48.662.662,0,0,0,.2.48.648.648,0,0,0,.48.2.662.662,0,0,0,.48-.2.657.657,0,0,0,.2-.48.667.667,0,0,0-.2-.48.657.657,0,0,0-.48-.206Z" transform="translate(-0.001 -11.349)" fill="#082453"/>
</svg>
