<svg xmlns="http://www.w3.org/2000/svg" width="36" height="31.623" viewBox="0 0 36 31.623">
  <path id="eslint" d="M10.886,13.7,17.724,9.75a.553.553,0,0,1,.552,0L25.114,13.7a.553.553,0,0,1,.276.48v7.894a.555.555,0,0,1-.276.479L18.276,26.5a.553.553,0,0,1-.552,0l-6.838-3.948a.553.553,0,0,1-.276-.48V14.178a.555.555,0,0,1,.276-.48m24.892,3.6L27.609,3.083a1.723,1.723,0,0,0-1.44-.894H9.832a1.725,1.725,0,0,0-1.44.894L.223,17.264a1.691,1.691,0,0,0,0,1.675l8.171,14.1a1.611,1.611,0,0,0,1.438.776h16.34a1.609,1.609,0,0,0,1.438-.768l8.169-14.12a1.6,1.6,0,0,0,0-1.629m-6.765,6.834a.6.6,0,0,1-.306.507l-10.408,6a.593.593,0,0,1-.588,0l-10.415-6a.6.6,0,0,1-.307-.507V12.12a.593.593,0,0,1,.306-.507l10.4-6a.588.588,0,0,1,.588,0l10.415,6a.6.6,0,0,1,.309.507Z" transform="translate(-0.001 -2.189)" fill="#082453"/>
</svg>
