<svg xmlns="http://www.w3.org/2000/svg" width="34.7" height="34.7" viewBox="0 0 34.7 34.7">
  <g id="formik" transform="translate(0 -0.005)">
    <path id="Path_18" data-name="Path 18" d="M0,0H34.7V34.7H0Z" fill="#082453"/>
    <g id="Group_15" data-name="Group 15" transform="translate(5.35 0.554)">
      <path id="Path_19" data-name="Path 19" d="M15.548,0l3.878,2.23L4.155,11.012.277,8.782Z" fill="#fff"/>
      <path id="Path_20" data-name="Path 20" d="M19.583,2.7,4.407,11.421v4.413L19.582,7.111Z" fill="#fff"/>
      <path id="Path_21" data-name="Path 21" d="M13.48,11.311l-9.041,5.2v4.413l9.041-5.2Z" fill="#fff"/>
      <path id="Path_22" data-name="Path 22" d="M10.015,18.288,4.418,21.5v4.413l5.6-3.217Z" fill="#fff"/>
      <path id="Path_23" data-name="Path 23" d="M0,9.207l3.9,2.242v4.414L0,13.622Z" fill="#fff"/>
      <path id="Path_24" data-name="Path 24" d="M.039,14.264l3.853,2.215,0,4.414L.037,18.678Z" fill="#fff"/>
      <path id="Path_25" data-name="Path 25" d="M.037,19.289,3.891,21.5l0,4.705L.035,23.995Z" fill="#fff"/>
      <path id="Path_26" data-name="Path 26" d="M8.626,33.6l-3.878-2.23,15.1-8.682,3.878,2.23Z" fill="#fff"/>
      <path id="Path_27" data-name="Path 27" d="M4.441,30.99l15.152-8.71V17.867L4.442,26.577Z" fill="#fff"/>
      <path id="Path_28" data-name="Path 28" d="M10.521,22.391l9.041-5.2V12.781l-9.041,5.2Z" fill="#fff"/>
      <path id="Path_29" data-name="Path 29" d="M13.986,15.414l5.6-3.217V7.783L13.987,11Z" fill="#fff"/>
      <path id="Path_30" data-name="Path 30" d="M24,24.524l-3.9-2.242V17.867L24,20.109Z" fill="#fff"/>
      <path id="Path_31" data-name="Path 31" d="M23.963,19.439,20.11,17.224V12.81l3.853,2.215Z" fill="#fff"/>
      <path id="Path_32" data-name="Path 32" d="M23.964,14.413,20.11,12.2l0-4.621,3.855,2.216Z" fill="#fff"/>
    </g>
  </g>
</svg>
