<svg xmlns="http://www.w3.org/2000/svg" width="24" height="24" viewBox="0 0 24 24">
  <path id="Icon_simple-javascript" data-name="Icon simple-javascript" d="M0,0H24V24H0ZM22.034,18.276c-.175-1.1-.888-2.015-3-2.873-.736-.345-1.554-.585-1.8-1.14a1.181,1.181,0,0,1-.046-.7A1.146,1.146,0,0,1,18.7,12.9a1.627,1.627,0,0,1,.976.9c1.034-.676,1.034-.676,1.755-1.125a4.127,4.127,0,0,0-.586-.78,3.359,3.359,0,0,0-2.834-1.034l-.7.089a3.224,3.224,0,0,0-1.71,1,3.137,3.137,0,0,0,.569,4.471c1.365,1.02,3.361,1.244,3.616,2.2.24,1.17-.87,1.545-1.966,1.41A2.633,2.633,0,0,1,16.063,18.7l-1.83,1.051a4.044,4.044,0,0,0,.81,1.109c1.74,1.756,6.09,1.666,6.871-1a3.385,3.385,0,0,0,.074-1.65l.046.067Zm-8.983-7.245H10.8c0,1.938-.009,3.864-.009,5.805a9.468,9.468,0,0,1-.138,2.711c-.33.689-1.18.6-1.566.48a1.929,1.929,0,0,1-.83-.855.858.858,0,0,0-.127-.2L6.308,20.1a3.537,3.537,0,0,0,1.324,1.517,4.4,4.4,0,0,0,3.207.4,2.809,2.809,0,0,0,1.811-1.411,6.931,6.931,0,0,0,.4-3.346c.012-2.054,0-4.109,0-6.179l0-.056Z" fill="#082453"/>
</svg>
