<svg xmlns="http://www.w3.org/2000/svg" width="31.856" height="34.834" viewBox="0 0 31.856 34.834">
  <g id="microsoft-sql-server-1" transform="translate(-79.215 -102.498)">
    <path id="Path_33" data-name="Path 33" d="M218.937,196.4l-6.975,2.284-6.075,2.683-1.7.45c-.433.415-.883.831-1.385,1.246-.536.467-1.038.883-1.419,1.194A11.5,11.5,0,0,0,200,205.624a6.051,6.051,0,0,0-1.021,1.731,2.866,2.866,0,0,0,.415,2.613,9.14,9.14,0,0,0,3.807,2.856,24.591,24.591,0,0,0,3.357,1.125,44.167,44.167,0,0,0,7.148,1.021,7.4,7.4,0,0,0,.917,0,12.183,12.183,0,0,0,.675-1.3,33.034,33.034,0,0,0,2.475-6.542,32.286,32.286,0,0,0,.64-4.534c.035-.519.052-2.233.017-2.8a23.207,23.207,0,0,0-.26-2.475c-.017-.1-.035-.208-.017-.208a8.8,8.8,0,0,1,.952-.277Zm-1.592.935a17.609,17.609,0,0,1,.277,2.648,2.082,2.082,0,0,1,0,.363c-.035,0-.883-.5-1.506-.883-.519-.329-1.523-1-1.679-1.125-.052-.035-.052-.035.381-.19C215.545,197.888,217.276,197.335,217.345,197.335Zm-3.565,1.177a1.818,1.818,0,0,1,.467.242,34.258,34.258,0,0,0,3.2,1.783c.19.086.208.052-.225.363a22.159,22.159,0,0,1-3.617,1.938,4.97,4.97,0,0,1-.485.208.8.8,0,0,1,.069-.294,16.393,16.393,0,0,0,.571-3.7C213.728,198.511,213.728,198.511,213.78,198.511Zm-.727.277a9.71,9.71,0,0,1-.035,1.54,13.024,13.024,0,0,1-.485,2.3,1.544,1.544,0,0,1-.121.363,8.831,8.831,0,0,1-.986-.952,6.9,6.9,0,0,1-.969-1.419,5.2,5.2,0,0,1-.294-.709C210.25,199.844,213.036,198.771,213.053,198.788Zm-3.444,1.35a.324.324,0,0,1,.087.19,6.663,6.663,0,0,0,.883,1.558,10.016,10.016,0,0,0,1.211,1.315c.121.1.242.208.26.225.035.035.035.035-.813.346-1,.381-2.077.761-3.323,1.16-.294.1-.588.19-.883.294-.052.017-.035-.017.1-.225a28,28,0,0,0,2.077-4.205c.087-.225.173-.467.19-.519a.194.194,0,0,1,.121-.138C209.557,200.156,209.592,200.138,209.609,200.138Zm-1.056.433c.017.017-.26.571-.519,1.09-.519,1-1.073,1.973-1.817,3.167-.121.208-.242.4-.26.415-.035.035-.035.035-.121-.138a4.653,4.653,0,0,1-.4-1.229,4.4,4.4,0,0,1,.035-1.575c.069-.329.069-.329.225-.4C206.338,201.575,208.519,200.554,208.554,200.571Zm9.086.381v.225a27.8,27.8,0,0,1-.312,3.963,2.085,2.085,0,0,1-.069.381s-.156-.035-.329-.086a12.771,12.771,0,0,1-2.423-1.038,8.843,8.843,0,0,1-1.229-.761l.485-.26a31.864,31.864,0,0,0,2.89-1.7c.329-.208.813-.571.917-.658Zm-13.066,1.558c.017,0,.017.035-.017.225a5.376,5.376,0,0,0-.052.571,3.95,3.95,0,0,0,.467,2.111c.1.208.19.4.19.4-.035.035-3.531,1.056-4.621,1.35-.329.087-.606.173-.64.173-.035.017-.035,0-.035-.087a5.537,5.537,0,0,1,1.54-2.648,7.081,7.081,0,0,1,1.731-1.333c.536-.277,1.35-.744,1.436-.761Zm8.221,1.471s.138.069.277.156a15.773,15.773,0,0,0,4.032,1.575l.121.035-.173.087c-.71.4-3.011,1.35-5.365,2.232-.346.121-.675.26-.744.277a.3.3,0,0,1-.121.035s.087-.19.208-.415a27.146,27.146,0,0,0,1.661-3.773A1.85,1.85,0,0,0,212.794,203.98Zm-.831.277a2.306,2.306,0,0,1-.087.242,34.494,34.494,0,0,1-1.834,3.686c-.19.346-.363.623-.363.623s-.156-.087-.346-.208a10.448,10.448,0,0,1-2.752-2.354l-.087-.121.485-.138a34.623,34.623,0,0,0,4.638-1.592A3.261,3.261,0,0,1,211.963,204.257Zm5.209,1.817c0,.121-.26,1.211-.485,1.99-.19.658-.346,1.177-.64,2.094-.121.4-.242.727-.242.727a.173.173,0,0,1-.069-.017,21.051,21.051,0,0,1-4.292-1.211c-.363-.156-.9-.381-.935-.415a5.025,5.025,0,0,1,.71-.329c2.406-1.056,4.88-2.233,5.746-2.752A1.031,1.031,0,0,1,217.172,206.074Zm-12.028.415c.017.017-.658.969-1.592,2.284-.329.467-.71,1-.848,1.194-.138.208-.363.519-.485.71l-.225.346-.242-.208a9.013,9.013,0,0,1-.986-1,4.45,4.45,0,0,1-.883-1.7c-.052-.26-.052-.381,0-.4.087-.017,1.488-.346,2.8-.658.727-.173,1.575-.363,1.886-.45C204.885,206.542,205.127,206.49,205.144,206.49Zm.675.26.173.19a10.168,10.168,0,0,0,2.475,2.025c.173.086.294.173.277.19-.035.035-3.254,1.177-4.759,1.679-.831.294-1.523.536-1.54.536l-.1-.069-.087-.069.156-.225c.5-.71,1.125-1.506,2.475-3.132Zm4.206,3.011s.242.087.519.19a18.3,18.3,0,0,0,1.956.606,23.224,23.224,0,0,0,2.959.519c.121.017.173.017.156.035-.035.017-.813.277-1.385.467-.9.277-3.669,1.108-5.936,1.748-.415.121-.779.225-.8.225a.393.393,0,0,1-.225-.052,2.328,2.328,0,0,1,.277-.346,33.486,33.486,0,0,0,2.146-2.873A4.992,4.992,0,0,1,210.025,209.761Zm-.935.017s-.363.606-1.021,1.644c-.277.433-.588.935-.71,1.108-.1.173-.26.433-.346.588l-.156.277-.087-.017c-.19-.052-1.523-.519-1.869-.658a11.717,11.717,0,0,1-1.229-.571,5.46,5.46,0,0,1-.9-.571c.017,0,.727-.208,1.61-.433,2.3-.623,3.582-.987,4.43-1.263a1.528,1.528,0,0,1,.277-.1Zm6.559,1.54c.035.052-.831,2.423-1.142,3.167-.069.173-.087.208-.138.208-.087,0-1.333-.173-2.077-.294-1.315-.208-3.513-.588-4.067-.71l-.121-.035.779-.173c1.7-.381,2.492-.588,3.323-.831a22.783,22.783,0,0,0,3.1-1.194A3.261,3.261,0,0,1,215.649,211.318Z" transform="translate(-119.618 -77.651)" fill="#082453"/>
    <path id="Path_34" data-name="Path 34" d="M237.015,102.5a33.724,33.724,0,0,0-3.2,1.142,19.1,19.1,0,0,0-3.669,1.852,2.693,2.693,0,0,0-.71.71.615.615,0,0,0-.035.173l.71.675,1.679.536,4,.71,4.569.779.052-.4h-.035l-.606-.087-.121-.208c-.623-1.09-1.315-2.458-1.713-3.375a16.067,16.067,0,0,1-.762-2.129c-.086-.363-.1-.381-.156-.381Zm-.087.26a1.173,1.173,0,0,1,.052.329,10.516,10.516,0,0,0,.519,2.215c.19.588.19.554-.035.485-.536-.156-2.942-.571-4.69-.813a2.753,2.753,0,0,1-.519-.087c-.017-.017,1.263-.692,1.817-.952C234.8,103.606,236.79,102.793,236.928,102.758Zm-5.088,2.371.208.069a30.955,30.955,0,0,0,5.486,1.038l.329.035a3.131,3.131,0,0,1-.329.173c-.744.381-1.575.831-2.146,1.194a2.86,2.86,0,0,1-.346.19c-.017,0-.138-.017-.242-.035l-.208-.035-.519-.519c-.935-.9-1.661-1.592-1.938-1.869Zm-.208.156.744.935c.4.519.813,1,.9,1.125.087.1.156.208.156.208-.017.017-1.073-.19-1.627-.312a11.326,11.326,0,0,1-1.16-.312l-.294-.087v-.069c0-.346.45-.883,1.211-1.419Zm6.317,1.263c.017,0,.052.052.1.19.173.4.744,1.454.883,1.661.035.069.121.069-.623-.052-1.783-.294-2.354-.381-2.354-.4,0,0,.052-.035.121-.087a11.091,11.091,0,0,0,1.61-1.108,2.519,2.519,0,0,1,.26-.208Z" transform="translate(-144.895)" fill="#082453"/>
    <path id="Path_35" data-name="Path 35" d="M216.652,123.4a.515.515,0,0,0,0,.467,2.063,2.063,0,0,0,.5.588s2.354,2.284,2.631,2.613a7.344,7.344,0,0,1,1.921,5,7.97,7.97,0,0,1-.831,3.79q-1.635,3.582-6.975,7.961l.519-.173a15.058,15.058,0,0,1,1.869-1.108,65.641,65.641,0,0,1,8.705-3.894,109.25,109.25,0,0,1,17.67-4.742l.485-.069-.069-.121a14.944,14.944,0,0,0-1.056-1.488,12.442,12.442,0,0,0-3.738-3.115,27.678,27.678,0,0,0-8.134-2.734c-.64-.121-2.042-.363-3.184-.537-2.423-.381-3.981-.64-5.694-.935-.623-.1-1.54-.26-2.146-.4a12.71,12.71,0,0,1-1.4-.381C217.309,124.006,216.773,123.85,216.652,123.4Zm1.367,1.333s.087.035.208.069c.208.069.467.156.761.225.225.069.467.121.692.19.312.087.588.156.588.156.035.035.571,1.748.744,2.388.069.242.121.467.121.467a1.785,1.785,0,0,1-.138-.208,11.277,11.277,0,0,0-2.717-3.081C218.123,124.819,218.019,124.733,218.019,124.733Zm2.6.71a1.632,1.632,0,0,1,.277.052c.9.208,2.509.5,3.531.675a1.379,1.379,0,0,1,.311.069c0,.017-.069.052-.138.087-.173.087-.883.5-1.108.658A10.4,10.4,0,0,0,222,128.177l-.277.277a1,1,0,0,1-.052-.208,16.761,16.761,0,0,0-.952-2.579c-.069-.1-.121-.225-.1-.225Zm4.552.865a1.962,1.962,0,0,1,.19.588,9.458,9.458,0,0,1,.26,2.423,3.752,3.752,0,0,1-.035.45l-.017.052-.277-.087c-.571-.173-1.488-.45-2.267-.675a6.922,6.922,0,0,1-.813-.242,11.461,11.461,0,0,1,.935-.935C223.678,127.415,225.132,126.29,225.167,126.308Zm.363.052c.017-.017,2.181.363,3.167.554.727.138,1.8.363,1.869.4.035.017-.087.069-.433.225a24.514,24.514,0,0,0-3.461,1.869c-.277.173-.5.329-.5.329s-.017-.156-.017-.329a7.528,7.528,0,0,0-.571-2.873C225.565,126.446,225.53,126.377,225.53,126.359Zm5.607,1.108a3.33,3.33,0,0,1-.121.692,13.476,13.476,0,0,1-1.333,3.046,3.084,3.084,0,0,1-.225.363,1.57,1.57,0,0,1-.311-.173,16.307,16.307,0,0,0-2.059-1,2.787,2.787,0,0,1-.4-.173,30.148,30.148,0,0,1,2.561-1.7C229.96,128.09,231.12,127.45,231.137,127.467Zm.4.069c.052,0,1,.26,1.506.415a27.176,27.176,0,0,1,3.582,1.315l.381.173-.277.069a38.607,38.607,0,0,0-6.075,1.886c-.156.069-.294.121-.294.121a.894.894,0,0,1,.1-.277,10.394,10.394,0,0,0,1.021-3.513A1.776,1.776,0,0,0,231.535,127.536Zm-9.553,2.2a9.589,9.589,0,0,1,1.142.277c.606.173,1.869.588,1.869.623,0,0-.138.121-.311.277-.692.571-1.35,1.177-2.146,1.956-.242.225-.433.415-.45.415s-.017-.035-.017-.069a12.482,12.482,0,0,0-.069-3.184A2.3,2.3,0,0,0,221.982,129.734Zm15.4.017c.017.017-.346.554-.554.865-.312.45-.779,1.056-1.835,2.371-.554.692-1.177,1.488-1.385,1.748s-.381.485-.4.485c0,0-.069-.086-.156-.208a10.979,10.979,0,0,0-2.129-2.354,2.885,2.885,0,0,0-.4-.312.81.81,0,0,1-.1-.087c0-.017.9-.4,1.575-.675,1.194-.485,2.821-1.073,4.032-1.436A12.271,12.271,0,0,1,237.385,129.751Zm.415.1a.933.933,0,0,1,.294.156,17.6,17.6,0,0,1,3.531,2.648c.277.277.969.986.952,1,0,0-.242.017-.519.035a52.828,52.828,0,0,0-7.788,1.3c-.19.035-.346.087-.363.087a4.488,4.488,0,0,1,.45-.45,13.447,13.447,0,0,0,3.2-4.257,4.049,4.049,0,0,1,.242-.519Zm-11.751,1.194c.069.017.761.346,1.281.588.467.242,1.194.623,1.229.64,0,0-.242.138-.554.294-.986.5-1.834.969-2.734,1.506-.26.156-.467.277-.467.277-.017,0-.017-.017.121-.277A11.681,11.681,0,0,0,226,131.171C226.015,131.1,226.032,131.049,226.049,131.049Zm-.675.138a8.085,8.085,0,0,1-.277,1.021,13,13,0,0,1-.935,2.146c-.087.156-.208.363-.277.485l-.138.208-.294-.277a4.128,4.128,0,0,0-.986-.727,1,1,0,0,1-.26-.156c0-.035.9-.865,1.592-1.454C224.3,132,225.357,131.171,225.374,131.188Zm4.188,1.713.26.173a19.744,19.744,0,0,1,1.817,1.35c.294.242.883.761,1,.9l.069.069-.433.121c-2.423.675-4.275,1.263-6.455,2.059-.242.087-.45.156-.467.156-.035,0-.052.035.485-.467a23.789,23.789,0,0,0,3.548-4.067Zm-1.108.277c.017.017-.71,1.021-1.142,1.61-.519.692-1.436,1.835-2.059,2.579a6.932,6.932,0,0,1-.5.571c-.017,0-.017-.069-.017-.19a4.333,4.333,0,0,0-.45-1.9c-.121-.242-.138-.294-.121-.329.1-.086,1.627-.969,2.613-1.488C227.416,133.68,228.437,133.161,228.455,133.178Zm-6.663,1.627c.017,0,.138.069.277.138a7.392,7.392,0,0,1,.9.606c.017.017-.121.121-.311.26-.5.363-1.263.935-1.7,1.281-.467.363-.485.381-.433.294a11.652,11.652,0,0,0,.71-1.211c.156-.346.329-.744.45-1.108A.65.65,0,0,1,221.792,134.8Zm1.783,1.4c.035,0,.052.035.208.26a3.839,3.839,0,0,1,.588,1.54l.017.1-.727.277c-1.3.5-2.492,1-3.288,1.367-.225.1-.623.294-.883.415-.26.138-.467.225-.467.225s.156-.121.363-.277a21.473,21.473,0,0,0,3.963-3.652A1.367,1.367,0,0,1,223.574,136.207Zm-.813.19a13.726,13.726,0,0,1-.986,1.125,17.96,17.96,0,0,1-3.271,2.648c-.156.1-.294.19-.312.208-.035.017.017-.035.554-.623.346-.381.606-.692.917-1.073a2.05,2.05,0,0,1,.519-.5C220.944,137.591,222.726,136.38,222.761,136.4Z" transform="translate(-132.077 -17.285)" fill="#082453"/>
  </g>
</svg>
