<svg xmlns="http://www.w3.org/2000/svg" width="32" height="32.983" viewBox="0 0 32 32.983">
  <path id="postgresql" d="M23.59,0A13.927,13.927,0,0,0,19.8.554l-.087.027A15.01,15.01,0,0,0,17.367.355a7.851,7.851,0,0,0-4.131,1.02A15.943,15.943,0,0,0,7.422.462,7.086,7.086,0,0,0,2.543,2.5C1.186,3.938.47,6.16.62,9.183a26.953,26.953,0,0,0,.673,3.957,46.572,46.572,0,0,0,1.64,5.706,12.476,12.476,0,0,0,2.632,4.722,3.237,3.237,0,0,0,2.364,1.02,3.027,3.027,0,0,0,1.807-.759,2.171,2.171,0,0,0,.778.619,3.755,3.755,0,0,0,.935.366,6.508,6.508,0,0,0,2.677.137,5.119,5.119,0,0,0,1.2-.371c.016.454.033.9.05,1.347A12.785,12.785,0,0,0,15.9,29.82a5.065,5.065,0,0,0,1,2.015,4,4,0,0,0,3.852,1.038,5.585,5.585,0,0,0,3.641-2.105c.976-1.388,1.416-3.38,1.5-6.609q.03-.232.076-.462l.233.02h.027a8.164,8.164,0,0,0,3.728-.646,5.083,5.083,0,0,0,2.309-1.763,1.766,1.766,0,0,0,.33-.884,1.792,1.792,0,0,0-.613-1.408,1.845,1.845,0,0,0-1.883-.27,8.617,8.617,0,0,1-1.652.2,31.6,31.6,0,0,0,3.378-8.033,17.537,17.537,0,0,0,.618-4.051,4.716,4.716,0,0,0-.8-3.174A9.849,9.849,0,0,0,23.816.005c-.076,0-.151,0-.226,0Zm-.065.88a8.922,8.922,0,0,1,7.367,3.329,4.068,4.068,0,0,1,.6,2.589,16.9,16.9,0,0,1-.589,3.834,30.819,30.819,0,0,1-3.981,8.917,1.039,1.039,0,0,0,.217.118,5.761,5.761,0,0,0,3.12-.066,1.243,1.243,0,0,1,1.136.1.715.715,0,0,1,.251.584.968.968,0,0,1-.179.462,4.684,4.684,0,0,1-1.928,1.436,7.571,7.571,0,0,1-2.908.567,4.446,4.446,0,0,1-1.354-.156l-.025-.01c-.151,1.457-.5,4.333-.726,5.646a4.612,4.612,0,0,1-1.1,2.529,4.9,4.9,0,0,1-2.613,1.256,3.543,3.543,0,0,1-3.138-.588,4.3,4.3,0,0,1-1.16-1.768,5.168,5.168,0,0,1-.256-1.273c-.063-.547-.11-1.217-.141-1.971q-.063-1.733-.041-3.468a4.206,4.206,0,0,1-2.133,1.044,5.616,5.616,0,0,1-2.3-.124,3.128,3.128,0,0,1-.715-.276,1.322,1.322,0,0,1-.6-.546.77.77,0,0,1-.079-.524.838.838,0,0,1,.3-.455,2.659,2.659,0,0,1,1.175-.458,3.753,3.753,0,0,0,1.543-.508A8.435,8.435,0,0,0,14,20.246q0-.028,0-.056a4.068,4.068,0,0,1-1.828-.492c-.206.217-1.259,1.33-2.542,2.875a2.516,2.516,0,0,1-1.766,1.044,2.312,2.312,0,0,1-1.682-.759A12.178,12.178,0,0,1,3.77,18.48a45.741,45.741,0,0,1-1.6-5.59,27.593,27.593,0,0,1-.651-3.8C1.37,6.227,2.039,4.3,3.187,3.083A6.173,6.173,0,0,1,7.447,1.318a15.262,15.262,0,0,1,5.9,1.009,6.72,6.72,0,0,1,3.975-1.1,10.156,10.156,0,0,1,2.311.3l.027-.012a9.42,9.42,0,0,1,1.016-.294A13.229,13.229,0,0,1,23.524.882Zm.209.921h-.2a12.012,12.012,0,0,0-2.342.264,10.3,10.3,0,0,1,3.917,3.092A11.6,11.6,0,0,1,26.664,7.8a6.3,6.3,0,0,1,.311.907,1.806,1.806,0,0,1,.055.324.6.6,0,0,1-.016.2A.061.061,0,0,1,27,9.242c.041,1.2-.257,2.02-.293,3.169-.027.833.186,1.811.237,2.88a5.452,5.452,0,0,1-.723,3.187c.055.066.1.132.157.2A30.037,30.037,0,0,0,30.01,10.4a16.12,16.12,0,0,0,.559-3.617,3.552,3.552,0,0,0-.406-2.007A7.887,7.887,0,0,0,23.732,1.8Zm-6.583.352a5.522,5.522,0,0,0-3.674,1.23,6.8,6.8,0,0,0-1.924,2.865,12.192,12.192,0,0,0-.705,3.318l.017-.011a7.114,7.114,0,0,1,1.825-.709A3.614,3.614,0,0,1,14.8,8.9a2.387,2.387,0,0,1,1.432,1.807c.968,4.477-.3,6.14-.769,7.4A13.208,13.208,0,0,0,15,19.493a1.357,1.357,0,0,1,.178-.036,1.5,1.5,0,0,1,.742.148,1.92,1.92,0,0,1,1.065,1.462.462.462,0,0,1,.027.175q-.078,2.568.017,5.137c.032.739.079,1.391.137,1.9a5.317,5.317,0,0,0,.2,1.034,3.489,3.489,0,0,0,.9,1.407,2.523,2.523,0,0,0,2.349.39,3.989,3.989,0,0,0,2.142-.994,3.714,3.714,0,0,0,.86-2.045c.248-1.443.749-5.628.809-6.415a2.63,2.63,0,0,1,.25-1.4,1.632,1.632,0,0,1,.759-.694,2.592,2.592,0,0,1,.354-.128q-.159-.229-.334-.447a6.124,6.124,0,0,1-.915-1.51q-.166-.337-.354-.663c-.183-.33-.414-.742-.656-1.206a14.964,14.964,0,0,1-1.284-3.147,3.279,3.279,0,0,1,.387-3.024c.618-.709,1.7-1,3.334-.838-.049-.145-.077-.264-.159-.456a10.743,10.743,0,0,0-1.43-2.424,8.885,8.885,0,0,0-7.072-3.573h-.159Zm-9.128.071c-.175,0-.349.005-.522.016A5.244,5.244,0,0,0,3.861,3.716c-.94,1-1.558,2.627-1.424,5.327a28.732,28.732,0,0,0,.631,3.645A45.334,45.334,0,0,0,4.638,18.16,11.955,11.955,0,0,0,6.823,22.2a1.4,1.4,0,0,0,1,.5,1.6,1.6,0,0,0,1.1-.712q1.2-1.446,2.488-2.815a4.806,4.806,0,0,1-1.6-4.329,17.142,17.142,0,0,0,.145-2.716c-.016-.731-.069-1.218-.069-1.521q0-.013,0-.026V10.57l0-.008v0a13.6,13.6,0,0,1,.814-4.64,7.93,7.93,0,0,1,1.817-2.9,15.572,15.572,0,0,0-3.964-.781q-.261-.013-.522-.014Zm17.04,7.259a2.243,2.243,0,0,0-1.732.567,2.481,2.481,0,0,0-.184,2.2,14.318,14.318,0,0,0,1.206,2.944c.234.45.461.853.643,1.182a8.249,8.249,0,0,1,.4.763,4.5,4.5,0,0,0,.245.5,4.615,4.615,0,0,0,.388-2.292c-.049-.966-.272-1.954-.239-2.955.038-1.169.268-1.93.289-2.836a7.962,7.962,0,0,0-1.017-.066Zm-11.316.159a3.876,3.876,0,0,0-.847.1,6.412,6.412,0,0,0-1.585.617,3.321,3.321,0,0,0-.479.313l-.03.027c.008.2.049.687.065,1.4a18.019,18.019,0,0,1-.154,2.864,3.646,3.646,0,0,0,3.381,4.3,13.8,13.8,0,0,1,.5-1.487c.558-1.5,1.657-2.6.731-6.88a1.357,1.357,0,0,0-.863-1.143,2.026,2.026,0,0,0-.72-.115Zm10.88.28h.069a1.207,1.207,0,0,1,.247.03.556.556,0,0,1,.19.076.225.225,0,0,1,.1.151l0,.011h0a.33.33,0,0,1-.049.186.918.918,0,0,1-.151.206.931.931,0,0,1-.53.291.811.811,0,0,1-.563-.141.836.836,0,0,1-.179-.162.357.357,0,0,1-.087-.175.234.234,0,0,1,.058-.176.528.528,0,0,1,.161-.124,1.533,1.533,0,0,1,.512-.159,1.7,1.7,0,0,1,.22-.017Zm-10.747.231a1.645,1.645,0,0,1,.228.017,1.526,1.526,0,0,1,.541.168.613.613,0,0,1,.183.146.307.307,0,0,1,.074.234.415.415,0,0,1-.1.212.892.892,0,0,1-.2.179.88.88,0,0,1-.616.156,1,1,0,0,1-.577-.313.976.976,0,0,1-.162-.225.385.385,0,0,1-.056-.243.349.349,0,0,1,.262-.268,1.19,1.19,0,0,1,.422-.055ZM26.33,20.244l0,0c-.2.073-.368.1-.508.165a.621.621,0,0,0-.328.294,1.762,1.762,0,0,0-.139.915.7.7,0,0,0,.2.1,3.821,3.821,0,0,0,1.069.111,7.171,7.171,0,0,0,2.529-.481,5.429,5.429,0,0,0,1.3-.845h0a6.419,6.419,0,0,1-3.659.016,1.807,1.807,0,0,1-.456-.275Zm-11.038.129h-.029c-.073.006-.179.032-.384.258a9.95,9.95,0,0,1-1.04,1.187,4.4,4.4,0,0,1-1.93.691,2.636,2.636,0,0,0-.634.2.376.376,0,0,0,.1.073,2.269,2.269,0,0,0,.5.2,4.806,4.806,0,0,0,1.918.11,3.278,3.278,0,0,0,2.208-1.429A.707.707,0,0,0,16.027,21a1.026,1.026,0,0,0-.455-.541.9.9,0,0,0-.28-.082Z" transform="translate(-0.601)" fill="#082453"/>
</svg>
