<svg xmlns="http://www.w3.org/2000/svg" width="24" height="24" viewBox="0 0 24 24">
  <path id="Icon_awesome-python" data-name="Icon awesome-python" d="M23.56,11.276c-.412-1.655-1.195-2.9-2.861-2.9H18.551v2.539a3.674,3.674,0,0,1-3.578,3.632H9.251a2.919,2.919,0,0,0-2.861,2.909v5.453c0,1.554,1.35,2.464,2.861,2.909a9.626,9.626,0,0,0,5.721,0c1.441-.418,2.861-1.259,2.861-2.909v-2.18H12.117V20H20.7c1.666,0,2.282-1.162,2.861-2.9A9.8,9.8,0,0,0,23.56,11.276Zm-8.228,10.9a1.09,1.09,0,1,1-1.077,1.087A1.083,1.083,0,0,1,15.332,22.178ZM8.989,13.826H14.71a2.884,2.884,0,0,0,2.861-2.909V5.459A3.2,3.2,0,0,0,14.71,2.48a17.658,17.658,0,0,0-5.721.005c-2.421.429-2.861,1.323-2.861,2.978v2.18h5.727v.729H3.98A3.576,3.576,0,0,0,.4,11.276a10.729,10.729,0,0,0,0,5.818C.809,18.787,1.779,20,3.445,20H5.411V17.383A3.637,3.637,0,0,1,8.989,13.826ZM8.63,6.187A1.09,1.09,0,1,1,9.707,5.1,1.083,1.083,0,0,1,8.63,6.187Z" transform="translate(0 -2.25)" fill="#082453"/>
</svg>
