<svg xmlns="http://www.w3.org/2000/svg" width="24" height="22.761" viewBox="0 0 24 22.761">
  <path id="Icon_simple-redux" data-name="Icon simple-redux" d="M16.634,16.816a1.664,1.664,0,0,0,1.5-1.754,1.727,1.727,0,0,0-1.708-1.648h-.061a1.71,1.71,0,0,0-1.648,1.769,1.826,1.826,0,0,0,.494,1.153,11.031,11.031,0,0,1-5,4.8,8.2,8.2,0,0,1-4.944.929,4.31,4.31,0,0,1-3.116-1.8,4.469,4.469,0,0,1-.255-4.734,7.066,7.066,0,0,1,2.1-2.443,9.96,9.96,0,0,1-.42-1.542C-.867,14.72-.416,19.064.932,21.117a6.384,6.384,0,0,0,5.3,2.456,7.783,7.783,0,0,0,1.843-.194,11.724,11.724,0,0,0,8.541-6.533l.014-.031Zm5.348-3.746a12.367,12.367,0,0,0-9.635-4.225h-.51a1.612,1.612,0,0,0-1.5-.9H10.3A1.677,1.677,0,0,0,8.649,9.7a1.727,1.727,0,0,0,1.708,1.648h.074a1.691,1.691,0,0,0,1.5-1.049h.555a11.6,11.6,0,0,1,6.489,1.992,8.214,8.214,0,0,1,3.236,3.9,4.137,4.137,0,0,1-.045,3.6,4.454,4.454,0,0,1-4.2,2.517A7.822,7.822,0,0,1,15,21.656c-.359.3-.959.793-1.394,1.093a9.621,9.621,0,0,0,3.94.943,6.69,6.69,0,0,0,5.918-3.236A6.857,6.857,0,0,0,22,13.039ZM6.491,17.354A1.724,1.724,0,0,0,8.2,19h.06a1.708,1.708,0,0,0-.045-3.415H8.153a.645.645,0,0,0-.225.029A11.192,11.192,0,0,1,6.356,8.844a8.134,8.134,0,0,1,1.8-4.735A5.326,5.326,0,0,1,11.9,2.4c3.236-.061,4.585,3.971,4.689,5.574l1.5.449C17.742,3.51,14.686.931,11.764.931A6.942,6.942,0,0,0,5.471,5.847,12.589,12.589,0,0,0,6.7,16.486a1.326,1.326,0,0,0-.209.868Z" transform="translate(0 -0.932)" fill="#082453"/>
</svg>
