<svg xmlns="http://www.w3.org/2000/svg" width="18" height="25.442" viewBox="0 0 18 25.442">
  <path id="Icon_awesome-stripe-s" data-name="Icon awesome-stripe-s" d="M7.943,7.681c0-1.108.924-1.535,2.4-1.535A15.9,15.9,0,0,1,17.4,7.969V1.3A18.689,18.689,0,0,0,10.352,0C4.6,0,.773,3,.773,8.019c0,7.845,10.771,6.573,10.771,9.956,0,1.312-1.138,1.734-2.718,1.734a17.887,17.887,0,0,1-7.755-2.261v6.384a19.679,19.679,0,0,0,7.75,1.61c5.892,0,9.951-2.534,9.951-7.631,0-8.456-10.831-6.941-10.831-10.13Z" transform="translate(-0.773)" fill="#082453"/>
</svg>
