<svg xmlns="http://www.w3.org/2000/svg" width="24" height="24" viewBox="0 0 24 24">
  <path id="Icon_simple-typescript" data-name="Icon simple-typescript" d="M0,12V24H24V0H0Zm19.341-.956a2.984,2.984,0,0,1,1.5.865,3.88,3.88,0,0,1,.575.77c.008.03-1.036.73-1.668,1.123-.023.015-.115-.084-.217-.236a1.361,1.361,0,0,0-1.128-.678c-.728-.05-1.2.331-1.192.967a.88.88,0,0,0,.1.45c.16.331.458.53,1.39.933,1.719.74,2.454,1.227,2.911,1.92a3.484,3.484,0,0,1,.278,2.926,3.213,3.213,0,0,1-2.655,1.9,7.323,7.323,0,0,1-1.828-.018,4.413,4.413,0,0,1-2.442-1.273,4.227,4.227,0,0,1-.625-.925,1.581,1.581,0,0,1,.22-.141c.108-.061.511-.294.892-.515l.69-.4.145.214a3.224,3.224,0,0,0,.91.872,2.227,2.227,0,0,0,2.335-.118,1.041,1.041,0,0,0,.133-1.33c-.186-.266-.567-.49-1.649-.96A5.936,5.936,0,0,1,15.76,16a3.165,3.165,0,0,1-.659-1.2,4.827,4.827,0,0,1-.042-1.531,2.924,2.924,0,0,1,2.461-2.278,6.074,6.074,0,0,1,1.821.053Zm-5.634,1,.008.983H10.59v8.876H8.38V13.029H5.258v-.964a9.591,9.591,0,0,1,.026-.99c.012-.016,1.913-.024,4.217-.02l4.2.012Z" fill="#082453"/>
</svg>
