<svg xmlns="http://www.w3.org/2000/svg" width="26.213" height="27.908" viewBox="0 0 26.213 27.908">
  <g id="Icon_feather-github" data-name="Icon feather-github" transform="translate(1.213 1.029)" style="isolation: isolate">
    <path id="Icon_feather-github-2" data-name="Icon feather-github" d="M11.615,23.647C5.462,25.493,5.462,20.57,3,19.954m17.231,7.385V22.576a4.148,4.148,0,0,0-1.157-3.212c3.865-.431,7.926-1.9,7.926-8.615a6.7,6.7,0,0,0-1.845-4.614,6.24,6.24,0,0,0-.112-4.641s-1.452-.431-4.812,1.822a16.468,16.468,0,0,0-8.615,0C8.255,1.062,6.8,1.493,6.8,1.493a6.24,6.24,0,0,0-.111,4.64,6.7,6.7,0,0,0-1.846,4.652c0,6.671,4.062,8.135,7.926,8.615a4.148,4.148,0,0,0-1.157,3.175v4.763" transform="translate(-3 -1.46)" fill="none" stroke="#e6e6e6" strokeLinecap="round" strokeLinejoin="round" strokeWidth="2"/>
  </g>
</svg>
