<svg xmlns="http://www.w3.org/2000/svg" width="26" height="24.8" viewBox="0 0 26 24.8">
  <g id="Icon_feather-linkedin" data-name="Icon feather-linkedin" transform="translate(1 1)">
    <path id="Path_1" data-name="Path 1" d="M22.2,12a7.2,7.2,0,0,1,7.2,7.2v8.4H24.6V19.2a2.4,2.4,0,1,0-4.8,0v8.4H15V19.2A7.2,7.2,0,0,1,22.2,12Z" transform="translate(-5.4 -4.8)" fill="none" stroke="#e6e6e6" strokeLinecap="round" strokeLinejoin="round" strokeWidth="2"/>
    <path id="Path_2" data-name="Path 2" d="M3,13.5H7.8V27.9H3Z" transform="translate(-3 -5.1)" fill="none" stroke="#e6e6e6" strokeLinecap="round" strokeLinejoin="round" strokeWidth="2"/>
    <path id="Path_3" data-name="Path 3" d="M7.8,5.4A2.4,2.4,0,1,1,5.4,3,2.4,2.4,0,0,1,7.8,5.4Z" transform="translate(-3 -3)" fill="none" stroke="#e6e6e6" strokeLinecap="round" strokeLinejoin="round" strokeWidth="2"/>
  </g>
</svg>
