<svg xmlns="http://www.w3.org/2000/svg" width="25.319" height="26.746" viewBox="0 0 25.319 26.746">
  <path id="Icon_feather-github" data-name="Icon feather-github" d="M7.9,20.338C2.256,22.03,2.256,17.517,0,16.953m15.795,6.769V19.356a3.8,3.8,0,0,0-1.061-2.945C18.277,16.017,22,14.674,22,8.514a6.137,6.137,0,0,0-1.692-4.23,5.72,5.72,0,0,0-.1-4.254S18.875-.365,15.795,1.7a15.1,15.1,0,0,0-7.9,0C4.817-.365,3.486.03,3.486.03a5.72,5.72,0,0,0-.1,4.253A6.137,6.137,0,0,0,1.692,8.548c0,6.115,3.723,7.457,7.266,7.9A3.8,3.8,0,0,0,7.9,19.356v4.366" transform="translate(1.819 1.524)" fill="none" stroke="#082453" stroke-linecap="round" stroke-linejoin="round" stroke-width="3"/>
</svg>
