<svg xmlns="http://www.w3.org/2000/svg" width="36" height="25.318" viewBox="0 0 36 25.318">
  <path id="youtube" d="M17.281,24.829V14.714l9.724,5.076-9.724,5.04ZM38.638,12.963a7.77,7.77,0,0,0-1.432-3.575A5.151,5.151,0,0,0,33.6,7.865C28.563,7.5,21.006,7.5,21.006,7.5h-.014s-7.556,0-12.593.364A5.151,5.151,0,0,0,4.791,9.387,7.785,7.785,0,0,0,3.36,12.962,54.457,54.457,0,0,0,3,18.789V21.52a54.487,54.487,0,0,0,.36,5.827A7.772,7.772,0,0,0,4.791,30.92a6.091,6.091,0,0,0,3.969,1.538c2.88.275,12.239.36,12.239.36s7.565-.011,12.6-.374a5.149,5.149,0,0,0,3.607-1.524,7.782,7.782,0,0,0,1.432-3.573A54.487,54.487,0,0,0,39,21.52V18.789a54.427,54.427,0,0,0-.36-5.827Z" transform="translate(-3 -7.5)" fill="#082453" fill-rule="evenodd"/>
</svg>
